<svg xmlns="http://www.w3.org/2000/svg" xmlns:xlink="http://www.w3.org/1999/xlink" id="_x2014_&#xCE;&#xD3;&#xC8;_x5F_6" x="0px" y="0px" width="29.1px" height="50px" viewBox="0 0 29.1 50" style="enable-background:new 0 0 29.1 50;" xml:space="preserve">
<style type="text/css">
	.st0{fill:#FFFFFF;}
</style>
<g>
	<path class="st0" d="M15.3,42c0.3,0,0.6-0.3,0.6-0.6c0-0.3-0.3-0.6-0.6-0.6c-0.3,0-0.6,0.3-0.6,0.6C14.7,41.8,15,42,15.3,42z"></path>
	<path class="st0" d="M13.7,29.6c-0.3,0-0.6,0.3-0.6,0.6c0,0.3,0.3,0.6,0.6,0.6c0.3,0,0.6-0.3,0.6-0.6C14.3,29.9,14,29.6,13.7,29.6z   "></path>
	<path class="st0" d="M12.5,36.8c0.3,0,0.6-0.3,0.6-0.6c0-0.3-0.3-0.6-0.6-0.6c-0.3,0-0.6,0.3-0.6,0.6   C11.9,36.5,12.1,36.8,12.5,36.8z"></path>
	<path class="st0" d="M17.9,12.9L9.4,13c-1.7,0-3.1,1.4-3,3.1c0,1.2,0.7,2.3,1.8,2.7L8,44.2c0,3.1,2.5,5.7,5.6,5.8l0.2,0   c0,0,0,0,0,0c3.2,0,5.8-2.6,5.8-5.8l0.1-25.7c0.1-0.1,0.3-0.2,0.4-0.3c0.6-0.6,0.9-1.4,0.9-2.2C21,14.3,19.6,12.9,17.9,12.9z    M18.9,16c0,0.3-0.1,0.5-0.3,0.7C18.5,16.9,18.2,17,18,17L9.4,17h0c-0.5,0-0.9-0.4-1-0.9c0-0.5,0.4-1,0.9-1l8.5-0.1   C18.5,15.1,18.9,15.5,18.9,16z M13.7,32c-1,0-1.8-0.8-1.8-1.8c0-1,0.8-1.8,1.8-1.8c1,0,1.8,0.8,1.8,1.8C15.5,31.2,14.7,32,13.7,32z    M17.1,41.4c0,1-0.8,1.8-1.8,1.8c-1,0-1.8-0.8-1.8-1.8c0-1,0.8-1.8,1.8-1.8C16.3,39.7,17.1,40.4,17.1,41.4z M12.5,34.4   c1,0,1.8,0.8,1.8,1.8c0,1-0.8,1.8-1.8,1.8c-1,0-1.8-0.8-1.8-1.8C10.7,35.2,11.5,34.4,12.5,34.4z M10.2,27.5l0.1-8.3l7.4-0.1   l-0.1,8.4H10.2z"></path>
	<path class="st0" d="M10.1,9.9c0,0.8,0.7,1.5,1.5,1.5c0.8,0,1.5-0.7,1.5-1.5c0-0.8-0.7-1.5-1.5-1.5C10.7,8.4,10.1,9.1,10.1,9.9z    M12,9.9c0,0.3-0.2,0.5-0.5,0.5c-0.3,0-0.5-0.2-0.5-0.5c0-0.3,0.2-0.5,0.5-0.5C11.8,9.4,12,9.6,12,9.9z"></path>
	<path class="st0" d="M16.2,11.3c0.8,0,1.5-0.7,1.5-1.5c0-0.8-0.7-1.5-1.5-1.5c-0.8,0-1.5,0.7-1.5,1.5   C14.7,10.7,15.3,11.3,16.2,11.3z M16.2,9.4c0.3,0,0.5,0.2,0.5,0.5c0,0.3-0.2,0.5-0.5,0.5c-0.3,0-0.5-0.2-0.5-0.5   C15.6,9.6,15.9,9.4,16.2,9.4z"></path>
	<path class="st0" d="M13.7,4.4c-0.8,0-1.5,0.7-1.5,1.5c0,0.8,0.7,1.5,1.5,1.5s1.5-0.7,1.5-1.5C15.2,5.1,14.5,4.4,13.7,4.4z    M13.7,6.4c-0.3,0-0.5-0.2-0.5-0.5c0-0.3,0.2-0.5,0.5-0.5s0.5,0.2,0.5,0.5C14.2,6.2,14,6.4,13.7,6.4z"></path>
	<path class="st0" d="M5.5,14.4l-4.1,1L4,11.6c0.1-0.2,0.1-0.4-0.1-0.5L2,9l2.9-0.3c0.1,0,0.2-0.1,0.3-0.2c0.1-0.1,0.1-0.2,0.1-0.3   L4.1,2.5l4.5,1.5c0.2,0.1,0.4,0,0.5-0.2c0.1-0.2,0-0.4-0.2-0.5L3.7,1.5c-0.1-0.1-0.3,0-0.4,0.1C3.1,1.6,3.1,1.8,3.1,1.9l1.2,6   L1,8.3c-0.2,0-0.3,0.1-0.3,0.3C0.7,8.7,0.7,8.8,0.8,9l2.4,2.5L0.1,16c-0.1,0.1-0.1,0.3,0,0.5c0.1,0.1,0.2,0.1,0.3,0.1   c0,0,0.1,0,0.1,0l5.2-1.4C6,15.1,6.1,14.9,6,14.7C5.9,14.5,5.7,14.4,5.5,14.4z"></path>
	<path class="st0" d="M28.8,7.5l-5.4-1.4l-1.2-5.8c0-0.1-0.1-0.2-0.3-0.3c-0.1,0-0.3,0-0.4,0.1l-3.5,2.7c-0.2,0.1-0.2,0.4-0.1,0.6   c0.1,0.2,0.4,0.2,0.6,0.1l3-2.3l1.1,5.4c0,0.2,0.1,0.3,0.3,0.3l4.9,1.2l-3.6,2.9c-0.2,0.1-0.2,0.4-0.1,0.6l2.7,3.7l-5-0.4   c-0.2,0-0.4,0.1-0.4,0.4c0,0.2,0.1,0.4,0.4,0.4l5.9,0.5c0,0,0,0,0,0c0.1,0,0.3-0.1,0.4-0.2c0.1-0.1,0.1-0.3,0-0.4l-3-4.1l3.9-3.1   c0.1-0.1,0.2-0.3,0.1-0.4C29.1,7.6,28.9,7.5,28.8,7.5z"></path>
</g>
</svg>