<svg xmlns="http://www.w3.org/2000/svg" xmlns:xlink="http://www.w3.org/1999/xlink" id="_x2014_&#xCE;&#xD3;&#xC8;_x5F_6" x="0px" y="0px" width="59.4px" height="50px" viewBox="0 0 59.4 50" style="enable-background:new 0 0 59.4 50;" xml:space="preserve">
<style type="text/css">
	.st0{fill:#1E49AC;}
</style>
<g>
	<path class="st0" d="M29.3,27.4c0.8-1.9,2-3.5,3.5-4.9c0.3-0.3,0.7-0.6,1.1-0.9c0.2-0.1,0.3-0.2,0.5-0.3c0.1-0.1,0.2-0.2,0.3-0.2   c0.2-0.1,0.3-0.2,0.5-0.3c0.2-0.1,0.4-0.2,0.6-0.3l0.3-0.1c0.3-0.1,0.6-0.3,0.9-0.4c0.3-0.1,0.7-0.3,1-0.4l1-0.3V5.4h-1.5   c-0.5,0-0.9-0.1-1.3-0.3v12c-0.1,0-0.2,0.1-0.3,0.1c-0.4,0.1-0.7,0.3-1,0.5L34.5,18c-0.2,0.1-0.5,0.3-0.7,0.4   c-0.2,0.1-0.4,0.2-0.6,0.4c-0.1,0.1-0.3,0.2-0.4,0.3c-0.2,0.1-0.4,0.3-0.6,0.4c-0.4,0.3-0.8,0.6-1.2,1c-1.4,1.2-2.5,2.7-3.4,4.2   v0.1L29.3,27.4z"></path>
	<path class="st0" d="M45.9,5.4v13.7l1,0.3c5.4,1.8,9.3,6.6,9.8,12.3l0,0.2c0,0.3,0,0.7,0,1.1c0,5.7-3.4,10.9-8.7,13.1   c-1.8,0.7-3.6,1.1-5.5,1.1c-0.7,0-1.4-0.1-2.1-0.2c-0.1,0.8-0.3,1.6-0.7,2.3c-0.1,0.1-0.1,0.2-0.2,0.3c1,0.2,2,0.3,3,0.3   c2.3,0,4.5-0.5,6.6-1.3C55.3,46,59.4,39.8,59.4,33c0-0.4,0-0.8-0.1-1.3l0-0.1c-0.5-6.5-4.7-12-10.7-14.4v-12   c-0.4,0.2-0.8,0.3-1.3,0.3H45.9z"></path>
	<path class="st0" d="M40.3,46c0.7,0.1,1.4,0.2,2.1,0.2c1.7,0,3.2-0.3,4.7-0.9c4.1-1.7,7.1-5.7,7.3-10.5H34l5.5,8.7   C39.9,44.2,40.2,45.1,40.3,46z"></path>
	<path class="st0" d="M3.5,50h31c1.3,0,2.4-0.7,3-1.8c0.6-1.1,0.6-2.4-0.1-3.5L25.2,25.4V12.7c-0.4,0.2-0.8,0.3-1.3,0.3h-1.5v13.3   l12.6,20c0.1,0.2,0.1,0.5,0,0.7c-0.1,0.2-0.3,0.4-0.6,0.4h-31c-0.3,0-0.5-0.1-0.6-0.4c-0.1-0.2-0.1-0.5,0-0.7l12.6-20V12.9H14   c-0.5,0-0.9-0.1-1.3-0.3v12.7L0.5,44.7c-0.7,1.1-0.7,2.4-0.1,3.5C1,49.3,2.2,50,3.5,50z"></path>
	<path class="st0" d="M11.4,35.7l-5.1,8c-0.3,0.5-0.3,1,0,1.5c0.3,0.5,0.8,0.8,1.3,0.8h22.8c0.6,0,1.1-0.3,1.3-0.8   c0.3-0.5,0.3-1.1,0-1.5l-5.1-8H11.4z"></path>
	<path class="st0" d="M37.4,4.1h9.9c1.1,0,2-0.9,2-2c0-1.1-0.9-2-2-2h-9.9c-1.1,0-2,0.9-2,2C35.4,3.2,36.3,4.1,37.4,4.1z"></path>
	<path class="st0" d="M23.9,7.5H14c-1.1,0-2,0.9-2,2s0.9,2,2,2h9.9c1.1,0,2-0.9,2-2S25.1,7.5,23.9,7.5z"></path>
</g>
</svg>