<svg xmlns="http://www.w3.org/2000/svg" xmlns:xlink="http://www.w3.org/1999/xlink" id="_x2014_&#xCE;&#xD3;&#xC8;_x5F_6" x="0px" y="0px" width="34.7px" height="50px" viewBox="0 0 34.7 50" style="enable-background:new 0 0 34.7 50;" xml:space="preserve">
<style type="text/css">
	.st0{fill:#1E49AC;}
</style>
<g>
	<path class="st0" d="M19,40l-1-1.5c-0.7,0.8-1.1,1.6-1,2.4c0,0,0,0.1,0,0.1h5.8c0.2-1.2-0.6-2.3-0.7-2.5l-0.4,0.5L21,39.9l0-1   c0-1.5-1-2.1-1.4-2.3c0.1,1.1-0.3,2.3-0.5,2.9L19,40z"></path>
	<path class="st0" d="M17.6,5.8l0-0.4h4v0.4h2.7V4.4C24.7,4,25,3.4,25,2.7C25,1.2,23.8,0,22.3,0H17c-1.5,0-2.7,1.2-2.7,2.7   c0,0.7,0.2,1.2,0.6,1.7l0,1.4H17.6z M22.3,3.1H17c-0.2,0-0.4-0.2-0.4-0.4c0-0.2,0.2-0.4,0.4-0.4h5.3c0.2,0,0.4,0.2,0.4,0.4   C22.7,2.9,22.5,3.1,22.3,3.1z"></path>
	<path class="st0" d="M21.6,10.5v3.6l0.9,0.3c4.1,1.3,6.8,5,6.8,9.3c0,5.4-4.4,9.8-9.8,9.8c-5.4,0-9.8-4.4-9.8-9.8   c0-4.3,2.8-8,6.8-9.3l1-0.3l0-3.6h-2.7l0,1.7c-4.7,1.9-7.8,6.4-7.8,11.6c0,6.7,5.3,12.2,12,12.5c0.2,0,0.4,0,0.5,0   c0.3,0,0.5,0,0.8,0c6.5-0.4,11.7-5.8,11.7-12.5c0-5.1-3.1-9.7-7.8-11.6v-1.7H21.6z"></path>
	<path class="st0" d="M19.6,32.4c4.5,0,8.2-3.6,8.4-8.1H11.2C11.4,28.8,15.1,32.4,19.6,32.4z"></path>
	<path class="st0" d="M5.3,43.7V9.1h22.9c0-0.1,0-0.2,0-0.3V7.2H5.3V1.7H2.1v42H5.3z"></path>
	<polygon class="st0" points="25.6,42.4 14.5,42.4 14.5,45 0,45 0,50 34.7,50 34.7,45 25.6,45  "></polygon>
	<path class="st0" d="M23.9,21.3c0.1,0,0.1,0,0.2,0c1.2,0,2.3-1,2.4-2.2c0-0.6-0.2-1.2-0.6-1.7c-0.4-0.5-1-0.8-1.6-0.8   c-1.3-0.1-2.4,0.9-2.5,2.2c0,0.6,0.2,1.2,0.6,1.7C22.7,20.9,23.3,21.2,23.9,21.3z M24.1,17.8L24.1,17.8c0.4,0,0.6,0.2,0.8,0.4   c0.2,0.2,0.3,0.5,0.3,0.8c0,0.6-0.5,1-1.1,1L24,20c-0.3,0-0.6-0.2-0.8-0.4c-0.2-0.2-0.3-0.5-0.3-0.8C23,18.3,23.5,17.8,24.1,17.8z"></path>
	<path class="st0" d="M16.5,23.1c0.1,0,0.1,0,0.2,0c1.5,0,2.8-1.2,2.9-2.8c0.1-1.6-1.1-3-2.7-3.1c-1.6-0.1-3,1.1-3.1,2.7   c-0.1,0.8,0.2,1.5,0.7,2.1C15,22.7,15.7,23.1,16.5,23.1z M16.7,18.5c0,0,0.1,0,0.1,0c0.9,0.1,1.6,0.9,1.6,1.8   c-0.1,0.9-0.9,1.6-1.8,1.6c-0.5,0-0.9-0.2-1.2-0.6C15.1,21,15,20.5,15,20.1C15.1,19.2,15.8,18.5,16.7,18.5z"></path>
</g>
</svg>