<svg xmlns="http://www.w3.org/2000/svg" xmlns:xlink="http://www.w3.org/1999/xlink" id="Layer_1" x="0px" y="0px" width="214.2px" height="44.8px" viewBox="0 0 214.2 44.8" style="enable-background:new 0 0 214.2 44.8;" xml:space="preserve">
<style type="text/css">
	.st0{fill:#4068B2;}
	.st1{fill:#082052;}
</style>
<g>
	<polygon class="st0" points="28.9,6.8 30.4,5.3 31.4,6.4 33,4.7 28.3,0 26.7,1.7 27.6,2.6 26.1,4  "></polygon>
	<path class="st0" d="M13,22.9l-3.1-3.1l-1.6,1.6c0,0,0,0.1,0,0.2l2.9,2.9c0.1,0.1,0.1,0.1,0.2,0L13,22.9z"></path>
	<path class="st0" d="M30.1,18.8v-7.2h-1.4l-8.3,8.3h5c1.5,3.2,1.7,6,0.8,8.4c-1.4,3.5-4.3,6-6.4,7.4l-0.2,0.1h-6v-2.2H6.3v2.2H4.6   v4.6H0.2v4.3h26.4v-4.3h-0.7C28.5,36.7,34.3,26.7,30.1,18.8z"></path>
	<path class="st0" d="M29.5,9.1C29.5,9.1,29.5,9.1,29.5,9.1l-5.4-5.4c0,0,0,0,0,0L9.9,18c0,0,0,0,0,0l5.4,5.4c0,0,0,0,0,0L29.5,9.1z   "></path>
	<rect y="30.1" class="st0" width="19.9" height="2.4"></rect>
</g>
<g>
	<path class="st1" d="M53.5,14h4.1v13.7h5.1v3.1h-9.2V14z"></path>
	<path class="st1" d="M75.7,30.9L74.8,28h-6l-0.9,2.8h-4.4L69.3,14h5l5.8,16.9H75.7z M69.8,24.9h4l-2-6L69.8,24.9z"></path>
	<path class="st1" d="M82.1,14h7.3c1.7,0,3.1,0.4,4.1,1.2c1,0.8,1.5,1.9,1.5,3.2c0,1.9-1.1,3.2-3.3,3.9c1.1,0.2,2,0.6,2.7,1.4   c0.7,0.8,1,1.7,1,2.8c0,1.3-0.5,2.4-1.5,3.2s-2.4,1.2-4.1,1.2h-7.7V14z M86.2,17.1v3.6h2.7c0.6,0,1.1-0.2,1.4-0.5   c0.4-0.3,0.5-0.8,0.5-1.4s-0.2-1.1-0.5-1.4c-0.4-0.3-0.8-0.5-1.4-0.5H86.2z M86.2,27.7h3.1c0.6,0,1-0.2,1.4-0.5   c0.4-0.3,0.6-0.8,0.6-1.4c0-0.6-0.2-1.1-0.5-1.4c-0.4-0.4-0.8-0.5-1.4-0.5h-3.1V27.7z"></path>
	<path class="st1" d="M99.8,28.6c-1.7-1.6-2.5-3.7-2.5-6.2c0-2.5,0.8-4.6,2.5-6.2c1.7-1.6,3.7-2.4,6.1-2.4c2.4,0,4.5,0.8,6.1,2.4   c1.7,1.6,2.5,3.7,2.5,6.2c0,2.5-0.8,4.6-2.5,6.2c-1.7,1.6-3.7,2.4-6.1,2.4C103.6,31,101.5,30.2,99.8,28.6z M109.2,25.9   c0.8-0.9,1.2-2.1,1.2-3.5c0-1.5-0.4-2.6-1.2-3.5c-0.8-0.9-1.9-1.3-3.2-1.3s-2.4,0.4-3.2,1.3c-0.8,0.9-1.2,2.1-1.2,3.5   c0,1.5,0.4,2.6,1.2,3.5c0.8,0.9,1.9,1.3,3.2,1.3S108.4,26.8,109.2,25.9z"></path>
	<path class="st1" d="M121.3,24.3v6.6h-4.1V14h6.6c2,0,3.5,0.5,4.6,1.5c1.1,1,1.6,2.2,1.6,3.6c0,1-0.3,1.9-0.9,2.9   c-0.6,0.9-1.6,1.6-2.9,2l4.1,6.9h-4.8l-3.8-6.6H121.3z M121.3,17.1v4.1h2.5c0.6,0,1.1-0.2,1.5-0.6c0.4-0.4,0.5-0.9,0.5-1.5   c0-0.6-0.2-1.1-0.6-1.5c-0.4-0.4-0.9-0.6-1.5-0.6H121.3z"></path>
	<path class="st1" d="M144,30.9L143,28h-6l-0.9,2.8h-4.4l5.9-16.9h5l5.8,16.9H144z M138,24.9h4l-2-6L138,24.9z"></path>
	<path class="st1" d="M149.2,17.1V14h13.3v3.1h-4.6v13.7h-4.1V17.1H149.2z"></path>
	<path class="st1" d="M166.5,28.6c-1.7-1.6-2.5-3.7-2.5-6.2c0-2.5,0.8-4.6,2.5-6.2s3.7-2.4,6.1-2.4s4.5,0.8,6.1,2.4s2.5,3.7,2.5,6.2   c0,2.5-0.8,4.6-2.5,6.2c-1.7,1.6-3.7,2.4-6.1,2.4S168.2,30.2,166.5,28.6z M175.9,25.9c0.8-0.9,1.2-2.1,1.2-3.5   c0-1.5-0.4-2.6-1.2-3.5c-0.8-0.9-1.9-1.3-3.2-1.3c-1.4,0-2.4,0.4-3.2,1.3c-0.8,0.9-1.2,2.1-1.2,3.5c0,1.5,0.4,2.6,1.2,3.5   c0.8,0.9,1.9,1.3,3.2,1.3C174,27.2,175,26.8,175.9,25.9z"></path>
	<path class="st1" d="M188,24.3v6.6h-4.1V14h6.6c2,0,3.5,0.5,4.6,1.5c1.1,1,1.6,2.2,1.6,3.6c0,1-0.3,1.9-0.9,2.9   c-0.6,0.9-1.6,1.6-2.9,2l4.1,6.9h-4.8l-3.8-6.6H188z M188,17.1v4.1h2.5c0.6,0,1.1-0.2,1.5-0.6c0.4-0.4,0.5-0.9,0.5-1.5   c0-0.6-0.2-1.1-0.6-1.5c-0.4-0.4-0.9-0.6-1.5-0.6H188z"></path>
	<path class="st1" d="M208.4,30.9h-4.1v-5.4L198.5,14h4.7l3.2,7.6l3.2-7.6h4.7l-5.8,11.4V30.9z"></path>
</g>
</svg>