<svg xmlns="http://www.w3.org/2000/svg" xmlns:xlink="http://www.w3.org/1999/xlink" id="icons" x="0px" y="0px" width="61.9px" height="50px" viewBox="0 0 61.9 50" style="enable-background:new 0 0 61.9 50;" xml:space="preserve">
<style type="text/css">
	.st0{fill:none;stroke:#1E49AC;stroke-width:2;stroke-miterlimit:10;}
	.st1{fill:none;stroke:#1E49AC;stroke-width:2;stroke-linejoin:round;stroke-miterlimit:10;}
</style>
<g>
	<path class="st0" d="M9.4,32.7c-0.2,0.7-0.3,1.4-0.3,2.1c0,4.4,3.6,8,8,8c4.4,0,8-3.6,8-8c0-0.9-0.2-1.8-0.5-2.7   c1.1-1.2,1.8-2.9,1.8-4.7"></path>
	<path class="st0" d="M28.2,6.7C27.4,3.4,24.4,1,20.9,1c-2.5,0-4.8,1.3-6.2,3.2c-1.1-0.5-2.4-0.7-3.7-0.7c-5.5,0-10,4.5-10,10   c0,2.2,0.7,4.1,1.9,5.8"></path>
	<path class="st0" d="M12.6,33.4c-0.7,0.2-1.5,0.3-2.2,0.3c-5.2,0-9.4-4.2-9.4-9.4c0-3.3,1.7-6.2,4.3-7.9"></path>
	<path class="st0" d="M59.3,39.4L34.1,14.2v-4l-2.6-2.6L19.5,19.5l2.6,2.6h4l0,0l25.2,25.2c2.2,2.2,5.7,2.2,7.9,0l0,0   C61.5,45.2,61.5,41.6,59.3,39.4z"></path>
	<path class="st0" d="M55.3,48.7c1.5-1.5,1.3-4.6-0.2-6.1L39.4,26.2h-9.3"></path>
	<line class="st0" x1="31.5" y1="16.9" x2="26.2" y2="22.2"></line>
	<path class="st1" d="M11.3,20.9c-0.6-0.9-1-2.1-1-3.3c0-3.3,2.7-6,6-6c0.7,0,1.4,0.1,2,0.3"></path>
</g>
</svg>