<svg xmlns="http://www.w3.org/2000/svg" xmlns:xlink="http://www.w3.org/1999/xlink" id="icons" x="0px" y="0px" width="46.9px" height="46.8px" viewBox="0 0 46.9 46.8" style="enable-background:new 0 0 46.9 46.8;" xml:space="preserve">
<style type="text/css">
	.st0{fill:none;stroke:#1E49AC;stroke-width:2;stroke-linecap:round;stroke-linejoin:round;stroke-miterlimit:10;}
	.st1{fill:none;stroke:#1E49AC;stroke-width:2;stroke-miterlimit:10;}
</style>
<g>
	<path class="st0" d="M31.7,21.1l10.5-10.2h2.9l0.7-2.4L38.6,1l-2.2,0.6v2.9L25.9,15c-6.3-3.7-14.6-2.9-20.1,2.5   c-6.5,6.5-6.5,16.9,0,23.4s16.9,6.6,23.4,0.1C34.6,35.6,35.5,27.4,31.7,21.1z"></path>
	<path class="st1" d="M31.2,30.5c-4.8-2-10.5-1.8-13.4-0.6c-3,1.2-7,2.6-13.4,0.6"></path>
	<line class="st0" x1="36.4" y1="4.7" x2="38.5" y2="6.7"></line>
	<line class="st1" x1="11.6" y1="36.7" x2="13.7" y2="36.7"></line>
	<line class="st1" x1="17.8" y1="40.8" x2="19.9" y2="40.8"></line>
	<line class="st1" x1="24" y1="34.6" x2="26.1" y2="34.6"></line>
</g>
</svg>