<svg xmlns="http://www.w3.org/2000/svg" xmlns:xlink="http://www.w3.org/1999/xlink" id="icons" x="0px" y="0px" width="44px" height="48px" viewBox="0 0 44 48" style="enable-background:new 0 0 44 48;" xml:space="preserve">
<style type="text/css">
	.st0{fill:none;stroke:#FFFFFF;stroke-width:2;stroke-miterlimit:10;}
</style>
<g>
	<circle class="st0" cx="7" cy="7" r="6"></circle>
	<path class="st0" d="M16,40.5c0,3.6-2.9,6.5-6.5,6.5C5.9,47,3,44.1,3,40.5C3,36.9,5.9,34,9.5,34C13.1,34,16,36.9,16,40.5z"></path>
	<circle class="st0" cx="37" cy="23" r="6"></circle>
	<line class="st0" x1="10" y1="12" x2="14" y2="17"></line>
	<line class="st0" x1="12" y1="35" x2="15" y2="30"></line>
	<line class="st0" x1="31" y1="23" x2="26" y2="23"></line>
	<ellipse class="st0" cx="18.5" cy="23.5" rx="7.5" ry="7.5"></ellipse>
	<line class="st0" x1="5" y1="5" x2="7" y2="5"></line>
	<line class="st0" x1="16" y1="21" x2="18" y2="21"></line>
	<line class="st0" x1="35" y1="21" x2="37" y2="21"></line>
	<line class="st0" x1="7" y1="38" x2="9" y2="38"></line>
	<path class="st0" d="M17.5,13.3c1.2-2.8,4.4-4.1,7.2-2.9s4.1,4.4,2.9,7.2"></path>
	<path class="st0" d="M9.2,18.2C6.2,18.4,3.8,21,4,24c0.2,3,2.8,5.4,5.8,5.2"></path>
	<path class="st0" d="M18,34.1c1.4,2.7,4.8,3.7,7.5,2.2c2.7-1.4,3.7-4.8,2.2-7.4"></path>
</g>
</svg>