<svg xmlns="http://www.w3.org/2000/svg" xmlns:xlink="http://www.w3.org/1999/xlink" id="icons" x="0px" y="0px" width="49.2px" height="47.6px" viewBox="0 0 49.2 47.6" style="enable-background:new 0 0 49.2 47.6;" xml:space="preserve">
<style type="text/css">
	.st0{fill:none;stroke:#1E49AC;stroke-width:2;stroke-linejoin:round;stroke-miterlimit:10;}
</style>
<g>
	<polygon class="st0" points="21.4,35.9 27.8,46.6 39.6,46.6 46,35.9 39.6,25.2 27.8,25.2  "></polygon>
	<polyline class="st0" points="27.8,25.2 21.4,14.5 9.6,14.5 3.2,25.2 9.6,35.9 21.4,35.9  "></polyline>
	<polyline class="st0" points="39.6,25.2 46,14.5 39.6,3.8 27.8,3.8 21.4,14.5  "></polyline>
	<line class="st0" x1="12.8" y1="17.7" x2="7.5" y2="25.2"></line>
	<line class="st0" x1="31" y1="7" x2="25.7" y2="14.5"></line>
	<line class="st0" x1="41.7" y1="35.9" x2="36.4" y2="43.3"></line>
	<line class="st0" x1="3.2" y1="25.2" x2="0" y2="25.2"></line>
	<line class="st0" x1="46" y1="14.5" x2="49.2" y2="14.5"></line>
	<line class="st0" x1="39.6" y1="3.8" x2="41.7" y2="0.6"></line>
</g>
</svg>